<svg xmlns="http://www.w3.org/2000/svg" width="1100" height="450" viewBox="0 0 1100 450"><style>text{font-family:Segoe UI,Arial,sans-serif;fill:#172033;font-size:14px}.title{font-size:20px;font-weight:700}</style><rect width="100%" height="100%" fill="#f8fafc"/><text x="20" y="32" class="title">Paged vs Direct by frozen prompt workload</text><text x="20" y="55">Median matched-block regression; negative is faster, positive is slower</text><line x1="540" y1="70" x2="540" y2="430" stroke="#64748b" stroke-width="2"/><text x="20" y="102">controlled-cross-page (17 tok)</text><rect x="510.4" y="85" width="29.6" height="24" fill="#16a34a"/><text x="502.4" y="102" text-anchor="end">-5.92%</text><text x="20" y="157">database-zh-cross-page (19 tok)</text><rect x="467.6" y="140" width="72.4" height="24" fill="#16a34a"/><text x="459.6" y="157" text-anchor="end">-14.49%</text><text x="20" y="212">machine-learning-zh-cross-page (19 tok)</text><rect x="540.0" y="195" width="223.3" height="24" fill="#dc2626"/><text x="771.3" y="212" text-anchor="start">+44.66%</text><text x="20" y="267">attention-en-cross-page (18 tok)</text><rect x="525.3" y="250" width="14.7" height="24" fill="#16a34a"/><text x="517.3" y="267" text-anchor="end">-2.94%</text><text x="20" y="322">cuda-mixed-cross-page (20 tok)</text><rect x="415.1" y="305" width="124.9" height="24" fill="#16a34a"/><text x="407.1" y="322" text-anchor="end">-24.98%</text><text x="20" y="377">code-cpp-cross-page (20 tok)</text><rect x="524.2" y="360" width="15.8" height="24" fill="#16a34a"/><text x="516.2" y="377" text-anchor="end">-3.17%</text></svg>