<svg xmlns="http://www.w3.org/2000/svg" width="1100" height="1110" viewBox="0 0 1100 1110"><style>text{font-family:Segoe UI,Arial,sans-serif;fill:#172033;font-size:14px}.title{font-size:20px;font-weight:700}</style><rect width="100%" height="100%" fill="#f8fafc"/><text x="20" y="32" class="title">Paged vs Direct by frozen prompt workload</text><text x="20" y="55">Median matched-block regression; negative is faster, positive is slower</text><line x1="540" y1="70" x2="540" y2="1090" stroke="#64748b" stroke-width="2"/><text x="20" y="102">architecture-64 (64 tok)</text><rect x="540.0" y="85" width="3.0" height="24" fill="#dc2626"/><text x="551.0" y="102" text-anchor="start">+0.60%</text><text x="20" y="157">architecture-128 (128 tok)</text><rect x="540.0" y="140" width="20.6" height="24" fill="#dc2626"/><text x="568.6" y="157" text-anchor="start">+4.12%</text><text x="20" y="212">architecture-256 (256 tok)</text><rect x="540.0" y="195" width="10.0" height="24" fill="#dc2626"/><text x="558.0" y="212" text-anchor="start">+2.01%</text><text x="20" y="267">architecture-512 (512 tok)</text><rect x="540.0" y="250" width="18.8" height="24" fill="#dc2626"/><text x="566.8" y="267" text-anchor="start">+3.76%</text><text x="20" y="322">architecture-1024 (1024 tok)</text><rect x="540.0" y="305" width="50.0" height="24" fill="#dc2626"/><text x="598.0" y="322" text-anchor="start">+9.99%</text><text x="20" y="377">architecture-2048 (2048 tok)</text><rect x="540.0" y="360" width="30.9" height="24" fill="#dc2626"/><text x="578.9" y="377" text-anchor="start">+6.18%</text><text x="20" y="432">interview-64 (64 tok)</text><rect x="540.0" y="415" width="11.2" height="24" fill="#dc2626"/><text x="559.2" y="432" text-anchor="start">+2.24%</text><text x="20" y="487">interview-128 (128 tok)</text><rect x="540.0" y="470" width="17.8" height="24" fill="#dc2626"/><text x="565.8" y="487" text-anchor="start">+3.56%</text><text x="20" y="542">interview-256 (256 tok)</text><rect x="540.0" y="525" width="7.5" height="24" fill="#dc2626"/><text x="555.5" y="542" text-anchor="start">+1.49%</text><text x="20" y="597">interview-512 (512 tok)</text><rect x="539.2" y="580" width="1.0" height="24" fill="#16a34a"/><text x="531.2" y="597" text-anchor="end">-0.16%</text><text x="20" y="652">interview-1024 (1024 tok)</text><rect x="540.0" y="635" width="45.3" height="24" fill="#dc2626"/><text x="593.3" y="652" text-anchor="start">+9.06%</text><text x="20" y="707">interview-2048 (2048 tok)</text><rect x="540.0" y="690" width="30.1" height="24" fill="#dc2626"/><text x="578.1" y="707" text-anchor="start">+6.02%</text><text x="20" y="762">paged-research-64 (64 tok)</text><rect x="540.0" y="745" width="4.9" height="24" fill="#dc2626"/><text x="552.9" y="762" text-anchor="start">+0.98%</text><text x="20" y="817">paged-research-128 (128 tok)</text><rect x="540.0" y="800" width="22.0" height="24" fill="#dc2626"/><text x="570.0" y="817" text-anchor="start">+4.41%</text><text x="20" y="872">paged-research-256 (256 tok)</text><rect x="540.0" y="855" width="24.4" height="24" fill="#dc2626"/><text x="572.4" y="872" text-anchor="start">+4.87%</text><text x="20" y="927">paged-research-512 (512 tok)</text><rect x="540.0" y="910" width="24.5" height="24" fill="#dc2626"/><text x="572.5" y="927" text-anchor="start">+4.90%</text><text x="20" y="982">paged-research-1024 (1024 tok)</text><rect x="540.0" y="965" width="30.0" height="24" fill="#dc2626"/><text x="578.0" y="982" text-anchor="start">+6.00%</text><text x="20" y="1037">paged-research-2048 (2048 tok)</text><rect x="540.0" y="1020" width="34.6" height="24" fill="#dc2626"/><text x="582.6" y="1037" text-anchor="start">+6.93%</text></svg>